<svg width="51" height="48" viewBox="0 0 51 48" fill="none" xmlns="http://www.w3.org/2000/svg">
<path fill-rule="evenodd" clip-rule="evenodd" d="M37.1031 10.711C37.9367 10.5606 38.8188 10.5786 39.6912 10.7952C42.7607 11.5624 44.5862 14.5017 43.7623 17.3597C42.9384 20.2177 39.7816 21.9175 36.7121 21.1504C35.8365 20.9307 35.0643 20.5366 34.4245 20.0192C28.6183 14.1617 21.6684 11.9745 13.9817 16.5233C11.9235 17.5703 9.44852 17.9102 7.00584 17.2995C1.96863 16.045 -1.02655 11.2194 0.324027 6.52621C1.67461 1.833 6.86045 -0.955847 11.9009 0.301692C14.3436 0.912411 16.3048 2.35948 17.5229 4.22172C21.7362 11.7369 28.9285 13.0787 37.1031 10.711Z" fill="#1E1E1E"/>
<path fill-rule="evenodd" clip-rule="evenodd" d="M11.5384 45.3584C11.2707 45.9598 10.8675 46.5144 10.332 46.9631C8.45157 48.546 5.65709 48.2874 4.09367 46.3836C2.53024 44.4797 2.78568 41.6504 4.6661 40.0675C5.20161 39.6157 5.81098 39.3134 6.44496 39.1576C12.9757 38.2914 17.5398 34.9292 17.8845 27.8435C18.0907 26.03 18.9616 24.2913 20.4573 23.0325C23.5442 20.4337 28.1298 20.8606 30.6966 23.9859C33.2633 27.1113 32.8417 31.7541 29.7548 34.3528C28.2591 35.6116 26.4125 36.16 24.6121 36.0354C17.669 35.085 13.5666 39.0143 11.5353 45.3584H11.5384Z" fill="#1E1E1E"/>
<g clip-path="url(#clip0_97_156)">
<path fill-rule="evenodd" clip-rule="evenodd" d="M46.6197 26.8524C49.5522 27.6139 51.2883 30.536 50.5037 33.3824C49.7191 36.2234 46.7031 37.9139 43.7762 37.1524C40.8436 36.3908 39.1075 33.4634 39.8921 30.6224C40.6767 27.776 43.6871 26.0908 46.6197 26.8524Z" fill="#1E1E1E"/>
</g>
<defs>
<clipPath id="clip0_97_156">
<rect width="10.99" height="10.6673" fill="white" transform="translate(39.7031 26.6689)"/>
</clipPath>
</defs>
</svg>
