<svg width="273" height="61" viewBox="0 0 273 61" fill="none" xmlns="http://www.w3.org/2000/svg">
<mask id="path-1-outside-1_108_49" maskUnits="userSpaceOnUse" x="58.6934" y="6.01855" width="129" height="35" fill="black">
<rect fill="white" x="58.6934" y="6.01855" width="129" height="35"/>
<path d="M59.9746 6.69043H66.3965L80.9043 32.8701V6.69043H85.8496V40.0186H79.4277L64.9199 14.1904V40.0186H59.9746V6.69043ZM91.9434 20.7529C91.9434 19.3623 92.4512 18.1826 93.4668 17.2139C94.4824 16.2295 95.7012 15.7373 97.123 15.7373H107.248C108.545 15.7373 109.717 16.0576 110.764 16.6982C111.826 17.3232 112.67 18.1748 113.295 19.2529C113.936 20.3154 114.256 21.4951 114.256 22.792V23.4717C114.256 24.7529 113.936 25.9248 113.295 26.9873C112.67 28.0342 111.826 28.8779 110.764 29.5186C109.717 30.1436 108.545 30.4561 107.248 30.4561H99.7012V25.5342H107.295C107.857 25.5342 108.334 25.3311 108.725 24.9248C109.131 24.5186 109.334 24.0264 109.334 23.4482V22.792C109.334 22.1982 109.131 21.6982 108.725 21.292C108.334 20.8857 107.857 20.6826 107.295 20.6826H96.8887V33.1514C96.8887 33.6826 97.0684 34.1357 97.4277 34.5107C97.7871 34.8857 98.2246 35.0732 98.7402 35.0732H112.545V40.0186H98.7402C97.4902 40.0186 96.3496 39.7139 95.3184 39.1045C94.2871 38.4795 93.4668 37.6514 92.8574 36.6201C92.248 35.5732 91.9434 34.4248 91.9434 33.1748V20.7529ZM119.646 15.7373H124.592V31.1826C124.592 32.2764 124.967 33.2061 125.717 33.9717C126.467 34.7373 127.365 35.1201 128.412 35.1201H137.014V15.7373H141.959V35.0967C141.959 36.4561 141.475 37.6201 140.506 38.5889C139.537 39.542 138.357 40.0186 136.967 40.0186H128.412C126.803 40.0186 125.334 39.6279 124.006 38.8467C122.678 38.0498 121.615 36.9873 120.818 35.6592C120.037 34.3311 119.646 32.8623 119.646 31.2529V15.7373ZM147.584 22.5342C147.584 21.2842 147.896 20.1436 148.521 19.1123C149.162 18.0811 150.006 17.2607 151.053 16.6514C152.115 16.042 153.287 15.7373 154.568 15.7373H159.982V20.6592H154.568C154.006 20.6592 153.521 20.8545 153.115 21.2451C152.725 21.6201 152.529 22.0811 152.529 22.6279V40.0186H147.584V22.5342ZM163.756 24.5029C163.756 22.8936 164.146 21.4248 164.928 20.0967C165.725 18.7686 166.787 17.7139 168.115 16.9326C169.443 16.1357 170.912 15.7373 172.521 15.7373H177.818C179.428 15.7373 180.896 16.1357 182.225 16.9326C183.553 17.7139 184.607 18.7686 185.389 20.0967C186.186 21.4248 186.584 22.8936 186.584 24.5029V31.2529C186.584 32.8623 186.186 34.3311 185.389 35.6592C184.607 36.9873 183.553 38.0498 182.225 38.8467C180.896 39.6279 179.428 40.0186 177.818 40.0186H172.521C170.912 40.0186 169.443 39.6279 168.115 38.8467C166.787 38.0498 165.725 36.9873 164.928 35.6592C164.146 34.3311 163.756 32.8623 163.756 31.2529V24.5029ZM168.701 31.2061C168.701 32.2686 169.076 33.1826 169.826 33.9482C170.576 34.6982 171.475 35.0732 172.521 35.0732H177.818C178.881 35.0732 179.779 34.6982 180.514 33.9482C181.264 33.1826 181.639 32.2686 181.639 31.2061V24.5498C181.639 23.4873 181.264 22.5811 180.514 21.8311C179.779 21.0654 178.881 20.6826 177.818 20.6826H172.521C171.475 20.6826 170.576 21.0654 169.826 21.8311C169.076 22.5811 168.701 23.4873 168.701 24.5498V31.2061Z"/>
</mask>
<path d="M59.9746 6.69043H66.3965L80.9043 32.8701V6.69043H85.8496V40.0186H79.4277L64.9199 14.1904V40.0186H59.9746V6.69043ZM91.9434 20.7529C91.9434 19.3623 92.4512 18.1826 93.4668 17.2139C94.4824 16.2295 95.7012 15.7373 97.123 15.7373H107.248C108.545 15.7373 109.717 16.0576 110.764 16.6982C111.826 17.3232 112.67 18.1748 113.295 19.2529C113.936 20.3154 114.256 21.4951 114.256 22.792V23.4717C114.256 24.7529 113.936 25.9248 113.295 26.9873C112.67 28.0342 111.826 28.8779 110.764 29.5186C109.717 30.1436 108.545 30.4561 107.248 30.4561H99.7012V25.5342H107.295C107.857 25.5342 108.334 25.3311 108.725 24.9248C109.131 24.5186 109.334 24.0264 109.334 23.4482V22.792C109.334 22.1982 109.131 21.6982 108.725 21.292C108.334 20.8857 107.857 20.6826 107.295 20.6826H96.8887V33.1514C96.8887 33.6826 97.0684 34.1357 97.4277 34.5107C97.7871 34.8857 98.2246 35.0732 98.7402 35.0732H112.545V40.0186H98.7402C97.4902 40.0186 96.3496 39.7139 95.3184 39.1045C94.2871 38.4795 93.4668 37.6514 92.8574 36.6201C92.248 35.5732 91.9434 34.4248 91.9434 33.1748V20.7529ZM119.646 15.7373H124.592V31.1826C124.592 32.2764 124.967 33.2061 125.717 33.9717C126.467 34.7373 127.365 35.1201 128.412 35.1201H137.014V15.7373H141.959V35.0967C141.959 36.4561 141.475 37.6201 140.506 38.5889C139.537 39.542 138.357 40.0186 136.967 40.0186H128.412C126.803 40.0186 125.334 39.6279 124.006 38.8467C122.678 38.0498 121.615 36.9873 120.818 35.6592C120.037 34.3311 119.646 32.8623 119.646 31.2529V15.7373ZM147.584 22.5342C147.584 21.2842 147.896 20.1436 148.521 19.1123C149.162 18.0811 150.006 17.2607 151.053 16.6514C152.115 16.042 153.287 15.7373 154.568 15.7373H159.982V20.6592H154.568C154.006 20.6592 153.521 20.8545 153.115 21.2451C152.725 21.6201 152.529 22.0811 152.529 22.6279V40.0186H147.584V22.5342ZM163.756 24.5029C163.756 22.8936 164.146 21.4248 164.928 20.0967C165.725 18.7686 166.787 17.7139 168.115 16.9326C169.443 16.1357 170.912 15.7373 172.521 15.7373H177.818C179.428 15.7373 180.896 16.1357 182.225 16.9326C183.553 17.7139 184.607 18.7686 185.389 20.0967C186.186 21.4248 186.584 22.8936 186.584 24.5029V31.2529C186.584 32.8623 186.186 34.3311 185.389 35.6592C184.607 36.9873 183.553 38.0498 182.225 38.8467C180.896 39.6279 179.428 40.0186 177.818 40.0186H172.521C170.912 40.0186 169.443 39.6279 168.115 38.8467C166.787 38.0498 165.725 36.9873 164.928 35.6592C164.146 34.3311 163.756 32.8623 163.756 31.2529V24.5029ZM168.701 31.2061C168.701 32.2686 169.076 33.1826 169.826 33.9482C170.576 34.6982 171.475 35.0732 172.521 35.0732H177.818C178.881 35.0732 179.779 34.6982 180.514 33.9482C181.264 33.1826 181.639 32.2686 181.639 31.2061V24.5498C181.639 23.4873 181.264 22.5811 180.514 21.8311C179.779 21.0654 178.881 20.6826 177.818 20.6826H172.521C171.475 20.6826 170.576 21.0654 169.826 21.8311C169.076 22.5811 168.701 23.4873 168.701 24.5498V31.2061Z" fill="#1E1E1E"/>
<path d="M59.9746 6.69043V6.39208H59.6763V6.69043H59.9746ZM66.3965 6.69043L66.6574 6.54581L66.5723 6.39208H66.3965V6.69043ZM80.9043 32.8701L80.6433 33.0147L81.2027 34.024V32.8701H80.9043ZM80.9043 6.69043V6.39208H80.6059V6.69043H80.9043ZM85.8496 6.69043H86.148V6.39208H85.8496V6.69043ZM85.8496 40.0186V40.3169H86.148V40.0186H85.8496ZM79.4277 40.0186L79.1676 40.1647L79.2531 40.3169H79.4277V40.0186ZM64.9199 14.1904L65.18 14.0443L64.6216 13.0501V14.1904H64.9199ZM64.9199 40.0186V40.3169H65.2183V40.0186H64.9199ZM59.9746 40.0186H59.6763V40.3169H59.9746V40.0186ZM59.9746 6.69043V6.98878H66.3965V6.69043V6.39208H59.9746V6.69043ZM66.3965 6.69043L66.1355 6.83505L80.6433 33.0147L80.9043 32.8701L81.1653 32.7255L66.6574 6.54581L66.3965 6.69043ZM80.9043 32.8701H81.2027V6.69043H80.9043H80.6059V32.8701H80.9043ZM80.9043 6.69043V6.98878H85.8496V6.69043V6.39208H80.9043V6.69043ZM85.8496 6.69043H85.5513V40.0186H85.8496H86.148V6.69043H85.8496ZM85.8496 40.0186V39.7202H79.4277V40.0186V40.3169H85.8496V40.0186ZM79.4277 40.0186L79.6879 39.8724L65.18 14.0443L64.9199 14.1904L64.6598 14.3365L79.1676 40.1647L79.4277 40.0186ZM64.9199 14.1904H64.6216V40.0186H64.9199H65.2183V14.1904H64.9199ZM64.9199 40.0186V39.7202H59.9746V40.0186V40.3169H64.9199V40.0186ZM59.9746 40.0186H60.273V6.69043H59.9746H59.6763V40.0186H59.9746ZM93.4668 17.2139L93.6727 17.4298L93.6744 17.4281L93.4668 17.2139ZM110.764 16.6982L110.608 16.9528L110.612 16.9554L110.764 16.6982ZM113.295 19.2529L113.037 19.4026L113.039 19.407L113.295 19.2529ZM113.295 26.9873L113.039 26.8332L113.039 26.8344L113.295 26.9873ZM110.764 29.5186L110.917 29.7747L110.918 29.7741L110.764 29.5186ZM99.7012 30.4561H99.4028V30.7544H99.7012V30.4561ZM99.7012 25.5342V25.2358H99.4028V25.5342H99.7012ZM108.725 24.9248L108.514 24.7138L108.51 24.718L108.725 24.9248ZM108.725 21.292L108.51 21.4988L108.514 21.503L108.725 21.292ZM96.8887 20.6826V20.3843H96.5903V20.6826H96.8887ZM112.545 35.0732H112.843V34.7749H112.545V35.0732ZM112.545 40.0186V40.3169H112.843V40.0186H112.545ZM95.3184 39.1045L95.1637 39.3597L95.1666 39.3614L95.3184 39.1045ZM92.8574 36.6201L92.5996 36.7702L92.6006 36.7719L92.8574 36.6201ZM91.9434 20.7529H92.2417C92.2417 19.4447 92.7155 18.3428 93.6727 17.4298L93.4668 17.2139L93.2609 16.998C92.1868 18.0224 91.645 19.2799 91.645 20.7529H91.9434ZM93.4668 17.2139L93.6744 17.4281C94.6341 16.498 95.7782 16.0357 97.123 16.0357V15.7373V15.439C95.6241 15.439 94.3308 15.961 93.2592 16.9996L93.4668 17.2139ZM97.123 15.7373V16.0357H107.248V15.7373V15.439H97.123V15.7373ZM107.248 15.7373V16.0357C108.493 16.0357 109.611 16.3424 110.608 16.9527L110.764 16.6982L110.919 16.4438C109.823 15.7728 108.597 15.439 107.248 15.439V15.7373ZM110.764 16.6982L110.612 16.9554C111.63 17.5541 112.437 18.3684 113.037 19.4026L113.295 19.2529L113.553 19.1033C112.903 17.9812 112.022 17.0924 110.915 16.4411L110.764 16.6982ZM113.295 19.2529L113.039 19.407C113.651 20.4208 113.958 21.5468 113.958 22.792H114.256H114.554C114.554 21.4434 114.22 20.21 113.55 19.0989L113.295 19.2529ZM114.256 22.792H113.958V23.4717H114.256H114.554V22.792H114.256ZM114.256 23.4717H113.958C113.958 24.7005 113.651 25.8188 113.039 26.8333L113.295 26.9873L113.55 27.1414C114.22 26.0308 114.554 24.8054 114.554 23.4717H114.256ZM113.295 26.9873L113.039 26.8344C112.439 27.8384 111.631 28.6473 110.61 29.2631L110.764 29.5186L110.918 29.7741C112.021 29.1086 112.901 28.2299 113.551 27.1402L113.295 26.9873ZM110.764 29.5186L110.611 29.2624C109.613 29.858 108.495 30.1577 107.248 30.1577V30.4561V30.7544C108.595 30.7544 109.821 30.4291 110.917 29.7747L110.764 29.5186ZM107.248 30.4561V30.1577H99.7012V30.4561V30.7544H107.248V30.4561ZM99.7012 30.4561H99.9995V25.5342H99.7012H99.4028V30.4561H99.7012ZM99.7012 25.5342V25.8325H107.295V25.5342V25.2358H99.7012V25.5342ZM107.295 25.5342V25.8325C107.939 25.8325 108.493 25.5962 108.94 25.1316L108.725 24.9248L108.51 24.718C108.175 25.0659 107.776 25.2358 107.295 25.2358V25.5342ZM108.725 24.9248L108.936 25.1358C109.398 24.6732 109.632 24.1049 109.632 23.4482H109.334H109.036C109.036 23.9478 108.864 24.3639 108.514 24.7138L108.725 24.9248ZM109.334 23.4482H109.632V22.792H109.334H109.036V23.4482H109.334ZM109.334 22.792H109.632C109.632 22.1221 109.4 21.5453 108.936 21.081L108.725 21.292L108.514 21.503C108.862 21.8512 109.036 22.2744 109.036 22.792H109.334ZM108.725 21.292L108.94 21.0852C108.493 20.6206 107.939 20.3843 107.295 20.3843V20.6826V20.981C107.776 20.981 108.175 21.1509 108.51 21.4988L108.725 21.292ZM107.295 20.6826V20.3843H96.8887V20.6826V20.981H107.295V20.6826ZM96.8887 20.6826H96.5903V33.1514H96.8887H97.187V20.6826H96.8887ZM96.8887 33.1514H96.5903C96.5903 33.7576 96.7984 34.2852 97.2123 34.7172L97.4277 34.5107L97.6431 34.3043C97.3383 33.9862 97.187 33.6076 97.187 33.1514H96.8887ZM97.4277 34.5107L97.2123 34.7172C97.6275 35.1504 98.1426 35.3716 98.7402 35.3716V35.0732V34.7749C98.3066 34.7749 97.9467 34.6211 97.6431 34.3043L97.4277 34.5107ZM98.7402 35.0732V35.3716H112.545V35.0732V34.7749H98.7402V35.0732ZM112.545 35.0732H112.247V40.0186H112.545H112.843V35.0732H112.545ZM112.545 40.0186V39.7202H98.7402V40.0186V40.3169H112.545V40.0186ZM98.7402 40.0186V39.7202C97.5412 39.7202 96.4534 39.4286 95.4701 38.8476L95.3184 39.1045L95.1666 39.3614C96.2458 39.9991 97.4393 40.3169 98.7402 40.3169V40.0186ZM95.3184 39.1045L95.473 38.8493C94.4835 38.2497 93.6985 37.4569 93.1143 36.4683L92.8574 36.6201L92.6006 36.7719C93.2351 37.8458 94.0907 38.7093 95.1637 39.3596L95.3184 39.1045ZM92.8574 36.6201L93.1153 36.47C92.5333 35.4702 92.2417 34.3738 92.2417 33.1748H91.9434H91.645C91.645 34.4758 91.9628 35.6763 92.5996 36.7702L92.8574 36.6201ZM91.9434 33.1748H92.2417V20.7529H91.9434H91.645V33.1748H91.9434ZM119.646 15.7373V15.439H119.348V15.7373H119.646ZM124.592 15.7373H124.89V15.439H124.592V15.7373ZM137.014 35.1201V35.4185H137.312V35.1201H137.014ZM137.014 15.7373V15.439H136.715V15.7373H137.014ZM141.959 15.7373H142.257V15.439H141.959V15.7373ZM140.506 38.5889L140.715 38.8016L140.717 38.7998L140.506 38.5889ZM124.006 38.8467L123.852 39.1025L123.855 39.1038L124.006 38.8467ZM120.818 35.6592L120.561 35.8105L120.563 35.8127L120.818 35.6592ZM119.646 15.7373V16.0357H124.592V15.7373V15.439H119.646V15.7373ZM124.592 15.7373H124.293V31.1826H124.592H124.89V15.7373H124.592ZM124.592 31.1826H124.293C124.293 32.3526 124.698 33.3578 125.504 34.1805L125.717 33.9717L125.93 33.7629C125.236 33.0543 124.89 32.2001 124.89 31.1826H124.592ZM125.717 33.9717L125.504 34.1805C126.308 35.0018 127.283 35.4185 128.412 35.4185V35.1201V34.8218C127.448 34.8218 126.625 34.4728 125.93 33.7629L125.717 33.9717ZM128.412 35.1201V35.4185H137.014V35.1201V34.8218H128.412V35.1201ZM137.014 35.1201H137.312V15.7373H137.014H136.715V35.1201H137.014ZM137.014 15.7373V16.0357H141.959V15.7373V15.439H137.014V15.7373ZM141.959 15.7373H141.661V35.0967H141.959H142.257V15.7373H141.959ZM141.959 35.0967H141.661C141.661 36.3762 141.208 37.4646 140.295 38.3779L140.506 38.5889L140.717 38.7998C141.741 37.7756 142.257 36.5359 142.257 35.0967H141.959ZM140.506 38.5889L140.297 38.3762C139.385 39.273 138.281 39.7202 136.967 39.7202V40.0186V40.3169C138.434 40.3169 139.689 39.811 140.715 38.8015L140.506 38.5889ZM136.967 40.0186V39.7202H128.412V40.0186V40.3169H136.967V40.0186ZM128.412 40.0186V39.7202C126.853 39.7202 125.437 39.3426 124.157 38.5895L124.006 38.8467L123.855 39.1038C125.231 39.9133 126.752 40.3169 128.412 40.3169V40.0186ZM124.006 38.8467L124.159 38.5908C122.873 37.8192 121.846 36.7918 121.074 35.5057L120.818 35.6592L120.563 35.8127C121.385 37.1828 122.482 38.2804 123.852 39.1025L124.006 38.8467ZM120.818 35.6592L121.076 35.5079C120.322 34.2277 119.945 32.8116 119.945 31.2529H119.646H119.348C119.348 32.913 119.752 34.4344 120.561 35.8105L120.818 35.6592ZM119.646 31.2529H119.945V15.7373H119.646H119.348V31.2529H119.646ZM148.521 19.1123L148.268 18.9549L148.266 18.9577L148.521 19.1123ZM151.053 16.6514L150.904 16.3926L150.903 16.3935L151.053 16.6514ZM159.982 15.7373H160.281V15.439H159.982V15.7373ZM159.982 20.6592V20.9575H160.281V20.6592H159.982ZM153.115 21.2451L153.322 21.4603L153.322 21.4602L153.115 21.2451ZM152.529 40.0186V40.3169H152.828V40.0186H152.529ZM147.584 40.0186H147.286V40.3169H147.584V40.0186ZM147.584 22.5342H147.882C147.882 21.3366 148.181 20.2498 148.777 19.2669L148.521 19.1123L148.266 18.9577C147.612 20.0373 147.286 21.2317 147.286 22.5342H147.584ZM148.521 19.1123L148.775 19.2697C149.39 18.2798 150.198 17.494 151.203 16.9092L151.053 16.6514L150.903 16.3935C149.814 17.0275 148.934 17.8823 148.268 18.9549L148.521 19.1123ZM151.053 16.6514L151.201 16.9102C152.216 16.3279 153.337 16.0357 154.568 16.0357V15.7373V15.439C153.238 15.439 152.014 15.7561 150.904 16.3926L151.053 16.6514ZM154.568 15.7373V16.0357H159.982V15.7373V15.439H154.568V15.7373ZM159.982 15.7373H159.684V20.6592H159.982H160.281V15.7373H159.982ZM159.982 20.6592V20.3608H154.568V20.6592V20.9575H159.982V20.6592ZM154.568 20.6592V20.3608C153.929 20.3608 153.37 20.5861 152.908 21.0301L153.115 21.2451L153.322 21.4602C153.673 21.1229 154.083 20.9575 154.568 20.9575V20.6592ZM153.115 21.2451L152.909 21.0299C152.459 21.4618 152.231 22.0007 152.231 22.6279H152.529H152.828C152.828 22.1614 152.99 21.7785 153.322 21.4603L153.115 21.2451ZM152.529 22.6279H152.231V40.0186H152.529H152.828V22.6279H152.529ZM152.529 40.0186V39.7202H147.584V40.0186V40.3169H152.529V40.0186ZM147.584 40.0186H147.882V22.5342H147.584H147.286V40.0186H147.584ZM164.928 20.0967L164.672 19.9432L164.671 19.9454L164.928 20.0967ZM168.115 16.9326L168.267 17.1898L168.269 17.1885L168.115 16.9326ZM182.225 16.9326L182.071 17.1885L182.073 17.1898L182.225 16.9326ZM185.389 20.0967L185.132 20.248L185.133 20.2502L185.389 20.0967ZM185.389 35.6592L185.133 35.5057L185.132 35.5079L185.389 35.6592ZM182.225 38.8467L182.376 39.1039L182.378 39.1025L182.225 38.8467ZM168.115 38.8467L167.962 39.1025L167.964 39.1038L168.115 38.8467ZM164.928 35.6592L164.671 35.8105L164.672 35.8127L164.928 35.6592ZM169.826 33.9482L169.613 34.157L169.615 34.1592L169.826 33.9482ZM180.514 33.9482L180.301 33.7395L180.3 33.7395L180.514 33.9482ZM180.514 21.8311L180.298 22.0376L180.303 22.042L180.514 21.8311ZM169.826 21.8311L170.037 22.042L170.039 22.0398L169.826 21.8311ZM163.756 24.5029H164.054C164.054 22.9443 164.432 21.5281 165.185 20.248L164.928 20.0967L164.671 19.9454C163.861 21.3215 163.458 22.8428 163.458 24.5029H163.756ZM164.928 20.0967L165.184 20.2502C165.955 18.9646 166.982 17.9456 168.267 17.1898L168.115 16.9326L167.964 16.6755C166.593 17.4821 165.494 18.5725 164.672 19.9432L164.928 20.0967ZM168.115 16.9326L168.269 17.1885C169.549 16.4205 170.964 16.0357 172.521 16.0357V15.7373V15.439C170.86 15.439 169.338 15.851 167.962 16.6768L168.115 16.9326ZM172.521 15.7373V16.0357H177.818V15.7373V15.439H172.521V15.7373ZM177.818 15.7373V16.0357C179.376 16.0357 180.791 16.4205 182.071 17.1885L182.225 16.9326L182.378 16.6768C181.002 15.851 179.48 15.439 177.818 15.439V15.7373ZM182.225 16.9326L182.073 17.1898C183.358 17.9453 184.376 18.9636 185.132 20.248L185.389 20.0967L185.646 19.9454C184.839 18.5736 183.748 17.4824 182.376 16.6755L182.225 16.9326ZM185.389 20.0967L185.133 20.2502C185.901 21.5301 186.286 22.9454 186.286 24.5029H186.584H186.882C186.882 22.8417 186.47 21.3195 185.645 19.9432L185.389 20.0967ZM186.584 24.5029H186.286V31.2529H186.584H186.882V24.5029H186.584ZM186.584 31.2529H186.286C186.286 32.8104 185.901 34.2258 185.133 35.5057L185.389 35.6592L185.645 35.8127C186.47 34.4363 186.882 32.9142 186.882 31.2529H186.584ZM185.389 35.6592L185.132 35.5079C184.376 36.7928 183.357 37.8195 182.071 38.5908L182.225 38.8467L182.378 39.1025C183.749 38.2801 184.839 37.1818 185.646 35.8105L185.389 35.6592ZM182.225 38.8467L182.073 38.5895C180.793 39.3426 179.377 39.7202 177.818 39.7202V40.0186V40.3169C179.478 40.3169 181 39.9133 182.376 39.1038L182.225 38.8467ZM177.818 40.0186V39.7202H172.521V40.0186V40.3169H177.818V40.0186ZM172.521 40.0186V39.7202C170.963 39.7202 169.547 39.3426 168.267 38.5895L168.115 38.8467L167.964 39.1038C169.34 39.9133 170.861 40.3169 172.521 40.3169V40.0186ZM168.115 38.8467L168.269 38.5908C166.983 37.8192 165.955 36.7918 165.184 35.5057L164.928 35.6592L164.672 35.8127C165.494 37.1828 166.592 38.2804 167.962 39.1025L168.115 38.8467ZM164.928 35.6592L165.185 35.5079C164.432 34.2277 164.054 32.8116 164.054 31.2529H163.756H163.458C163.458 32.913 163.861 34.4344 164.671 35.8105L164.928 35.6592ZM163.756 31.2529H164.054V24.5029H163.756H163.458V31.2529H163.756ZM168.701 31.2061H168.403C168.403 32.3474 168.809 33.3362 169.613 34.157L169.826 33.9482L170.039 33.7395C169.343 33.0291 169 32.1897 169 31.2061H168.701ZM169.826 33.9482L169.615 34.1592C170.42 34.9643 171.394 35.3716 172.521 35.3716V35.0732V34.7749C171.555 34.7749 170.732 34.4321 170.037 33.7373L169.826 33.9482ZM172.521 35.0732V35.3716H177.818V35.0732V34.7749H172.521V35.0732ZM177.818 35.0732V35.3716C178.96 35.3716 179.936 34.9651 180.727 34.157L180.514 33.9482L180.3 33.7395C179.623 34.4314 178.802 34.7749 177.818 34.7749V35.0732ZM180.514 33.9482L180.727 34.157C181.531 33.3362 181.937 32.3474 181.937 31.2061H181.639H181.34C181.34 32.1897 180.996 33.0291 180.301 33.7395L180.514 33.9482ZM181.639 31.2061H181.937V24.5498H181.639H181.34V31.2061H181.639ZM181.639 24.5498H181.937C181.937 23.4083 181.531 22.4261 180.725 21.6201L180.514 21.8311L180.303 22.042C180.997 22.736 181.34 23.5663 181.34 24.5498H181.639ZM180.514 21.8311L180.729 21.6245C179.938 20.8001 178.962 20.3843 177.818 20.3843V20.6826V20.981C178.8 20.981 179.62 21.3307 180.298 22.0376L180.514 21.8311ZM177.818 20.6826V20.3843H172.521V20.6826V20.981H177.818V20.6826ZM172.521 20.6826V20.3843C171.392 20.3843 170.418 20.8009 169.613 21.6223L169.826 21.8311L170.039 22.0398C170.735 21.33 171.557 20.981 172.521 20.981V20.6826ZM169.826 21.8311L169.615 21.6201C168.809 22.4261 168.403 23.4083 168.403 24.5498H168.701H169C169 23.5663 169.343 22.736 170.037 22.042L169.826 21.8311ZM168.701 24.5498H168.403V31.2061H168.701H169V24.5498H168.701Z" fill="#1E1E1E" mask="url(#path-1-outside-1_108_49)"/>
<path d="M194.089 6.63916H216.401V11.561H199.034V39.9673H194.089V6.63916ZM201.847 20.1626H216.401V25.0845H201.847V20.1626ZM222.026 6.63916H226.972V39.9673H222.026V6.63916ZM232.386 24.4517C232.386 22.8423 232.776 21.3735 233.558 20.0454C234.354 18.7173 235.417 17.6626 236.745 16.8813C238.073 16.0845 239.542 15.686 241.151 15.686H246.448C248.058 15.686 249.526 16.0845 250.854 16.8813C252.183 17.6626 253.237 18.7173 254.019 20.0454C254.815 21.3735 255.214 22.8423 255.214 24.4517V31.2017C255.214 32.811 254.815 34.2798 254.019 35.6079C253.237 36.936 252.183 37.9985 250.854 38.7954C249.526 39.5767 248.058 39.9673 246.448 39.9673H241.151C239.542 39.9673 238.073 39.5767 236.745 38.7954C235.417 37.9985 234.354 36.936 233.558 35.6079C232.776 34.2798 232.386 32.811 232.386 31.2017V24.4517ZM237.331 31.1548C237.331 32.2173 237.706 33.1313 238.456 33.897C239.206 34.647 240.104 35.022 241.151 35.022H246.448C247.511 35.022 248.409 34.647 249.144 33.897C249.894 33.1313 250.269 32.2173 250.269 31.1548V24.4985C250.269 23.436 249.894 22.5298 249.144 21.7798C248.409 21.0142 247.511 20.6313 246.448 20.6313H241.151C240.104 20.6313 239.206 21.0142 238.456 21.7798C237.706 22.5298 237.331 23.436 237.331 24.4985V31.1548Z" fill="#1E1E1E"/>
<path d="M57.266 58.5708L60.85 48.6308H63.37L66.954 58.5708H64.742L64.014 56.4568H60.192L59.464 58.5708H57.266ZM60.794 54.7068H63.426L62.11 50.8708L60.794 54.7068ZM67.9071 58.5708V48.6308H70.0351V58.5708H67.9071ZM77.3759 58.5708V50.4228H74.4079V48.6308H82.4999V50.4228H79.5179V58.5708H77.3759ZM83.299 58.5708V48.6308H85.399V52.8168H85.119C85.1937 52.3781 85.3383 52.0188 85.553 51.7388C85.777 51.4588 86.0523 51.2488 86.379 51.1088C86.715 50.9688 87.079 50.8988 87.471 50.8988C88.031 50.8988 88.4977 51.0201 88.871 51.2628C89.2443 51.5055 89.5243 51.8415 89.711 52.2708C89.907 52.7001 90.005 53.1901 90.005 53.7408V58.5708H87.905V54.2448C87.905 53.6848 87.8163 53.2648 87.639 52.9848C87.471 52.7048 87.1817 52.5648 86.771 52.5648C86.3417 52.5648 86.0057 52.7095 85.763 52.9988C85.5203 53.2881 85.399 53.7221 85.399 54.3008V58.5708H83.299ZM93.9059 58.7388C93.1312 58.7388 92.4965 58.5615 92.0019 58.2068C91.5165 57.8428 91.2739 57.3388 91.2739 56.6948C91.2739 56.0321 91.4792 55.5235 91.8899 55.1688C92.3099 54.8048 92.9259 54.5388 93.7379 54.3708L96.1599 53.8948C96.1599 53.4095 96.0479 53.0455 95.8239 52.8028C95.6092 52.5508 95.2965 52.4248 94.8859 52.4248C94.4845 52.4248 94.1719 52.5181 93.9479 52.7048C93.7239 52.8821 93.5792 53.1481 93.5139 53.5028L91.3999 53.4048C91.5399 52.5835 91.9085 51.9628 92.5059 51.5428C93.1125 51.1135 93.9059 50.8988 94.8859 50.8988C96.0059 50.8988 96.8459 51.1648 97.4059 51.6968C97.9752 52.2288 98.2599 53.0081 98.2599 54.0348V56.5968C98.2599 56.8115 98.2925 56.9561 98.3579 57.0308C98.4325 57.0961 98.5399 57.1288 98.6799 57.1288H98.8899V58.5708C98.8245 58.5895 98.7172 58.6081 98.5679 58.6268C98.4279 58.6455 98.2879 58.6548 98.1479 58.6548C97.8492 58.6548 97.5692 58.6035 97.3079 58.5008C97.0559 58.3981 96.8505 58.2255 96.6919 57.9828C96.5332 57.7308 96.4539 57.3761 96.4539 56.9188L96.6359 57.0588C96.5425 57.3948 96.3745 57.6888 96.1319 57.9408C95.8985 58.1928 95.5905 58.3888 95.2079 58.5288C94.8345 58.6688 94.4005 58.7388 93.9059 58.7388ZM94.4099 57.2968C94.7552 57.2968 95.0585 57.2315 95.3199 57.1008C95.5812 56.9608 95.7865 56.7601 95.9359 56.4988C96.0852 56.2375 96.1599 55.9295 96.1599 55.5748V55.2108L94.4519 55.5748C94.1159 55.6401 93.8592 55.7521 93.6819 55.9108C93.5139 56.0601 93.4299 56.2561 93.4299 56.4988C93.4299 56.7508 93.5139 56.9468 93.6819 57.0868C93.8499 57.2268 94.0925 57.2968 94.4099 57.2968ZM102.69 58.5708C101.916 58.5708 101.346 58.3935 100.982 58.0388C100.618 57.6748 100.436 57.1008 100.436 56.3168V49.3028H102.536V56.0648C102.536 56.4288 102.611 56.6761 102.76 56.8068C102.919 56.9375 103.152 57.0028 103.46 57.0028H104.51V58.5708H102.69ZM99.2322 52.6348V51.0668H104.51V52.6348H99.2322ZM113.51 58.7948C112.502 58.7948 111.634 58.5848 110.906 58.1648C110.187 57.7448 109.632 57.1475 109.24 56.3728C108.857 55.5981 108.666 54.6788 108.666 53.6148C108.666 52.5508 108.857 51.6315 109.24 50.8568C109.632 50.0728 110.187 49.4708 110.906 49.0508C111.634 48.6215 112.502 48.4068 113.51 48.4068C114.518 48.4068 115.381 48.6215 116.1 49.0508C116.828 49.4708 117.383 50.0728 117.766 50.8568C118.158 51.6315 118.354 52.5508 118.354 53.6148C118.354 54.6788 118.158 55.5981 117.766 56.3728C117.383 57.1475 116.828 57.7448 116.1 58.1648C115.381 58.5848 114.518 58.7948 113.51 58.7948ZM113.496 57.0028C114.056 57.0028 114.532 56.8721 114.924 56.6108C115.325 56.3401 115.629 55.9528 115.834 55.4488C116.049 54.9448 116.156 54.3335 116.156 53.6148C116.156 52.8961 116.049 52.2848 115.834 51.7808C115.629 51.2675 115.325 50.8755 114.924 50.6048C114.532 50.3341 114.056 50.1988 113.496 50.1988C112.945 50.1988 112.474 50.3341 112.082 50.6048C111.69 50.8755 111.387 51.2675 111.172 51.7808C110.967 52.2848 110.864 52.8961 110.864 53.6148C110.864 54.3335 110.967 54.9448 111.172 55.4488C111.387 55.9528 111.69 56.3401 112.082 56.6108C112.483 56.8721 112.955 57.0028 113.496 57.0028ZM123.965 58.7388C123.442 58.7388 122.985 58.6268 122.593 58.4028C122.21 58.1788 121.911 57.8661 121.697 57.4648L121.655 58.5708H119.653V48.6308H121.753V52.1308C121.949 51.7855 122.238 51.4961 122.621 51.2628C123.003 51.0201 123.451 50.8988 123.965 50.8988C124.599 50.8988 125.15 51.0621 125.617 51.3888C126.083 51.7061 126.443 52.1588 126.695 52.7468C126.956 53.3348 127.087 54.0255 127.087 54.8188C127.087 55.6121 126.956 56.3028 126.695 56.8908C126.443 57.4788 126.083 57.9361 125.617 58.2628C125.15 58.5801 124.599 58.7388 123.965 58.7388ZM123.377 57.1288C123.843 57.1288 124.217 56.9281 124.497 56.5268C124.786 56.1161 124.931 55.5468 124.931 54.8188C124.931 54.0908 124.791 53.5261 124.511 53.1248C124.231 52.7141 123.857 52.5088 123.391 52.5088C123.045 52.5088 122.747 52.6021 122.495 52.7888C122.252 52.9661 122.065 53.2275 121.935 53.5728C121.813 53.9181 121.753 54.3335 121.753 54.8188C121.753 55.2948 121.813 55.7055 121.935 56.0508C122.065 56.3961 122.252 56.6621 122.495 56.8488C122.747 57.0355 123.041 57.1288 123.377 57.1288ZM131.763 58.7388C130.998 58.7388 130.33 58.5801 129.761 58.2628C129.201 57.9361 128.762 57.4788 128.445 56.8908C128.137 56.3028 127.983 55.6121 127.983 54.8188C127.983 54.0255 128.137 53.3395 128.445 52.7608C128.762 52.1728 129.201 51.7155 129.761 51.3888C130.321 51.0621 130.984 50.8988 131.749 50.8988C132.496 50.8988 133.144 51.0621 133.695 51.3888C134.246 51.7155 134.67 52.1821 134.969 52.7888C135.277 53.3955 135.431 54.1188 135.431 54.9588V55.3788H130.153C130.181 55.9761 130.34 56.4195 130.629 56.7088C130.928 56.9981 131.32 57.1428 131.805 57.1428C132.16 57.1428 132.454 57.0681 132.687 56.9188C132.93 56.7695 133.102 56.5408 133.205 56.2328L135.319 56.3588C135.123 57.1055 134.708 57.6888 134.073 58.1088C133.438 58.5288 132.668 58.7388 131.763 58.7388ZM130.153 54.0908H133.275C133.247 53.5401 133.093 53.1295 132.813 52.8588C132.542 52.5881 132.188 52.4528 131.749 52.4528C131.31 52.4528 130.946 52.5975 130.657 52.8868C130.377 53.1668 130.209 53.5681 130.153 54.0908ZM137.071 60.6708V59.1028H138.065C138.308 59.1028 138.485 59.0655 138.597 58.9908C138.719 58.9255 138.812 58.8041 138.877 58.6268L139.031 58.1928H138.457L135.825 51.0668H137.967L139.689 56.2328L141.299 51.0668H143.441L140.557 59.2848C140.389 59.7795 140.147 60.1341 139.829 60.3488C139.512 60.5635 139.069 60.6708 138.499 60.6708H137.071ZM147.468 58.7388C146.693 58.7388 146.045 58.6315 145.522 58.4168C144.999 58.1928 144.598 57.8941 144.318 57.5208C144.047 57.1381 143.893 56.6995 143.856 56.2048L145.984 56.1348C146.049 56.4895 146.199 56.7648 146.432 56.9608C146.665 57.1568 147.011 57.2548 147.468 57.2548C147.841 57.2548 148.131 57.1941 148.336 57.0728C148.551 56.9515 148.658 56.7648 148.658 56.5128C148.658 56.3541 148.621 56.2235 148.546 56.1208C148.471 56.0088 148.322 55.9155 148.098 55.8408C147.883 55.7568 147.561 55.6821 147.132 55.6168C146.339 55.4768 145.718 55.3135 145.27 55.1268C144.822 54.9401 144.505 54.6975 144.318 54.3988C144.131 54.1001 144.038 53.7361 144.038 53.3068C144.038 52.5881 144.313 52.0095 144.864 51.5708C145.424 51.1228 146.259 50.8988 147.37 50.8988C148.079 50.8988 148.672 51.0108 149.148 51.2348C149.633 51.4588 150.007 51.7668 150.268 52.1588C150.539 52.5415 150.707 52.9801 150.772 53.4748L148.658 53.5588C148.63 53.3161 148.555 53.1108 148.434 52.9428C148.322 52.7655 148.177 52.6301 148 52.5368C147.823 52.4341 147.608 52.3828 147.356 52.3828C146.983 52.3828 146.693 52.4621 146.488 52.6208C146.292 52.7701 146.194 52.9708 146.194 53.2228C146.194 53.4095 146.236 53.5635 146.32 53.6848C146.413 53.7968 146.563 53.8901 146.768 53.9648C146.973 54.0395 147.249 54.1001 147.594 54.1468C148.397 54.2588 149.031 54.4175 149.498 54.6228C149.974 54.8188 150.315 55.0661 150.52 55.3648C150.725 55.6635 150.828 56.0321 150.828 56.4708C150.828 56.9561 150.688 57.3668 150.408 57.7028C150.128 58.0388 149.736 58.2955 149.232 58.4728C148.737 58.6501 148.149 58.7388 147.468 58.7388ZM155.557 58.5708V48.6308H159.911C160.639 48.6308 161.269 48.7521 161.801 48.9948C162.343 49.2375 162.758 49.5828 163.047 50.0308C163.337 50.4695 163.481 50.9921 163.481 51.5988C163.481 52.0561 163.383 52.4621 163.187 52.8168C163.001 53.1715 162.739 53.4608 162.403 53.6848C162.077 53.9088 161.699 54.0488 161.269 54.1048L161.227 53.9788C161.89 53.9788 162.394 54.1235 162.739 54.4128C163.085 54.6928 163.281 55.1268 163.327 55.7148L163.579 58.5708H161.409L161.227 56.0508C161.199 55.6681 161.078 55.3881 160.863 55.2108C160.658 55.0241 160.303 54.9308 159.799 54.9308H157.685V58.5708H155.557ZM157.685 53.1528H159.673C160.187 53.1528 160.583 53.0361 160.863 52.8028C161.153 52.5601 161.297 52.2195 161.297 51.7808C161.297 51.3328 161.153 50.9968 160.863 50.7728C160.574 50.5395 160.154 50.4228 159.603 50.4228H157.685V53.1528ZM167.534 58.7388C166.76 58.7388 166.153 58.4915 165.714 57.9968C165.285 57.4928 165.07 56.7928 165.07 55.8968V51.0668H167.17V55.4068C167.17 55.9855 167.259 56.4101 167.436 56.6808C167.614 56.9421 167.894 57.0728 168.276 57.0728C168.706 57.0728 169.037 56.9281 169.27 56.6388C169.513 56.3401 169.634 55.8968 169.634 55.3088V51.0668H171.734V58.5708H169.816L169.76 56.4148L170.026 56.4708C169.914 57.2175 169.648 57.7821 169.228 58.1648C168.808 58.5475 168.244 58.7388 167.534 58.7388ZM175.534 58.5708C174.918 58.5708 174.438 58.4168 174.092 58.1088C173.747 57.8008 173.574 57.3015 173.574 56.6108V48.6308H175.674V56.3868C175.674 56.6108 175.726 56.7695 175.828 56.8628C175.931 56.9561 176.08 57.0028 176.276 57.0028H176.78V58.5708H175.534ZM181.2 58.7388C180.435 58.7388 179.768 58.5801 179.198 58.2628C178.638 57.9361 178.2 57.4788 177.882 56.8908C177.574 56.3028 177.42 55.6121 177.42 54.8188C177.42 54.0255 177.574 53.3395 177.882 52.7608C178.2 52.1728 178.638 51.7155 179.198 51.3888C179.758 51.0621 180.421 50.8988 181.186 50.8988C181.933 50.8988 182.582 51.0621 183.132 51.3888C183.683 51.7155 184.108 52.1821 184.406 52.7888C184.714 53.3955 184.868 54.1188 184.868 54.9588V55.3788H179.59C179.618 55.9761 179.777 56.4195 180.066 56.7088C180.365 56.9981 180.757 57.1428 181.242 57.1428C181.597 57.1428 181.891 57.0681 182.124 56.9188C182.367 56.7695 182.54 56.5408 182.642 56.2328L184.756 56.3588C184.56 57.1055 184.145 57.6888 183.51 58.1088C182.876 58.5288 182.106 58.7388 181.2 58.7388ZM179.59 54.0908H182.712C182.684 53.5401 182.53 53.1295 182.25 52.8588C181.98 52.5881 181.625 52.4528 181.186 52.4528C180.748 52.4528 180.384 52.5975 180.094 52.8868C179.814 53.1668 179.646 53.5681 179.59 54.0908ZM189.372 58.7388C188.598 58.7388 187.949 58.6315 187.426 58.4168C186.904 58.1928 186.502 57.8941 186.222 57.5208C185.952 57.1381 185.798 56.6995 185.76 56.2048L187.888 56.1348C187.954 56.4895 188.103 56.7648 188.336 56.9608C188.57 57.1568 188.915 57.2548 189.372 57.2548C189.746 57.2548 190.035 57.1941 190.24 57.0728C190.455 56.9515 190.562 56.7648 190.562 56.5128C190.562 56.3541 190.525 56.2235 190.45 56.1208C190.376 56.0088 190.226 55.9155 190.002 55.8408C189.788 55.7568 189.466 55.6821 189.036 55.6168C188.243 55.4768 187.622 55.3135 187.174 55.1268C186.726 54.9401 186.409 54.6975 186.222 54.3988C186.036 54.1001 185.942 53.7361 185.942 53.3068C185.942 52.5881 186.218 52.0095 186.768 51.5708C187.328 51.1228 188.164 50.8988 189.274 50.8988C189.984 50.8988 190.576 51.0108 191.052 51.2348C191.538 51.4588 191.911 51.7668 192.172 52.1588C192.443 52.5415 192.611 52.9801 192.676 53.4748L190.562 53.5588C190.534 53.3161 190.46 53.1108 190.338 52.9428C190.226 52.7655 190.082 52.6301 189.904 52.5368C189.727 52.4341 189.512 52.3828 189.26 52.3828C188.887 52.3828 188.598 52.4621 188.392 52.6208C188.196 52.7701 188.098 52.9708 188.098 53.2228C188.098 53.4095 188.14 53.5635 188.224 53.6848C188.318 53.7968 188.467 53.8901 188.672 53.9648C188.878 54.0395 189.153 54.1001 189.498 54.1468C190.301 54.2588 190.936 54.4175 191.402 54.6228C191.878 54.8188 192.219 55.0661 192.424 55.3648C192.63 55.6635 192.732 56.0321 192.732 56.4708C192.732 56.9561 192.592 57.3668 192.312 57.7028C192.032 58.0388 191.64 58.2955 191.136 58.4728C190.642 58.6501 190.054 58.7388 189.372 58.7388ZM193.758 58.5708V56.4288H196.04V58.5708H193.758ZM200.77 58.5708V48.6308H203.122L207.07 55.4908V48.6308H209.198V58.5708H206.818L202.898 51.9488V58.5708H200.77ZM214.424 58.7388C213.658 58.7388 212.991 58.5801 212.422 58.2628C211.852 57.9361 211.409 57.4788 211.092 56.8908C210.774 56.3028 210.616 55.6121 210.616 54.8188C210.616 54.0255 210.774 53.3395 211.092 52.7608C211.409 52.1728 211.852 51.7155 212.422 51.3888C212.991 51.0621 213.658 50.8988 214.424 50.8988C215.189 50.8988 215.856 51.0621 216.426 51.3888C216.995 51.7155 217.438 52.1728 217.756 52.7608C218.073 53.3395 218.232 54.0255 218.232 54.8188C218.232 55.6121 218.073 56.3028 217.756 56.8908C217.438 57.4788 216.995 57.9361 216.426 58.2628C215.856 58.5801 215.189 58.7388 214.424 58.7388ZM214.424 57.1288C214.946 57.1288 215.352 56.9281 215.642 56.5268C215.931 56.1161 216.076 55.5468 216.076 54.8188C216.076 54.0908 215.931 53.5261 215.642 53.1248C215.352 52.7141 214.946 52.5088 214.424 52.5088C213.901 52.5088 213.495 52.7141 213.206 53.1248C212.916 53.5261 212.772 54.0908 212.772 54.8188C212.772 55.5468 212.916 56.1161 213.206 56.5268C213.495 56.9281 213.901 57.1288 214.424 57.1288ZM222.415 58.5708C221.64 58.5708 221.071 58.3935 220.707 58.0388C220.343 57.6748 220.161 57.1008 220.161 56.3168V49.3028H222.261V56.0648C222.261 56.4288 222.335 56.6761 222.485 56.8068C222.643 56.9375 222.877 57.0028 223.185 57.0028H224.235V58.5708H222.415ZM218.957 52.6348V51.0668H224.235V52.6348H218.957ZM228.839 58.5708V48.6308H230.967V57.9968L229.791 56.7788H235.545V58.5708H228.839ZM236.52 58.5708V51.0668H238.62V58.5708H236.52ZM236.478 50.1428V48.4628H238.648V50.1428H236.478ZM240.553 58.5708V51.0668H242.443L242.513 52.8728L242.317 52.7888C242.42 52.3875 242.574 52.0468 242.779 51.7668C242.994 51.4868 243.25 51.2721 243.549 51.1228C243.848 50.9735 244.174 50.8988 244.529 50.8988C245.154 50.8988 245.658 51.0808 246.041 51.4448C246.433 51.8088 246.685 52.2988 246.797 52.9148L246.531 52.9288C246.615 52.4901 246.76 52.1215 246.965 51.8228C247.18 51.5148 247.441 51.2861 247.749 51.1368C248.057 50.9781 248.402 50.8988 248.785 50.8988C249.308 50.8988 249.756 51.0061 250.129 51.2208C250.502 51.4355 250.792 51.7575 250.997 52.1868C251.202 52.6068 251.305 53.1248 251.305 53.7408V58.5708H249.205V54.3288C249.205 53.7408 249.116 53.3021 248.939 53.0128C248.762 52.7141 248.472 52.5648 248.071 52.5648C247.819 52.5648 247.604 52.6348 247.427 52.7748C247.25 52.9148 247.11 53.1201 247.007 53.3908C246.914 53.6521 246.867 53.9741 246.867 54.3568V58.5708H244.977V54.3568C244.977 53.7781 244.893 53.3348 244.725 53.0268C244.557 52.7188 244.268 52.5648 243.857 52.5648C243.605 52.5648 243.386 52.6348 243.199 52.7748C243.022 52.9148 242.886 53.1201 242.793 53.3908C242.7 53.6615 242.653 53.9835 242.653 54.3568V58.5708H240.553ZM253.035 58.5708V51.0668H255.135V58.5708H253.035ZM252.993 50.1428V48.4628H255.163V50.1428H252.993ZM259.671 58.5708C258.896 58.5708 258.327 58.3935 257.963 58.0388C257.599 57.6748 257.417 57.1008 257.417 56.3168V49.3028H259.517V56.0648C259.517 56.4288 259.591 56.6761 259.741 56.8068C259.899 56.9375 260.133 57.0028 260.441 57.0028H261.491V58.5708H259.671ZM256.213 52.6348V51.0668H261.491V52.6348H256.213ZM265.812 58.7388C265.037 58.7388 264.388 58.6315 263.866 58.4168C263.343 58.1928 262.942 57.8941 262.662 57.5208C262.391 57.1381 262.237 56.6995 262.2 56.2048L264.328 56.1348C264.393 56.4895 264.542 56.7648 264.776 56.9608C265.009 57.1568 265.354 57.2548 265.812 57.2548C266.185 57.2548 266.474 57.1941 266.68 57.0728C266.894 56.9515 267.002 56.7648 267.002 56.5128C267.002 56.3541 266.964 56.2235 266.89 56.1208C266.815 56.0088 266.666 55.9155 266.442 55.8408C266.227 55.7568 265.905 55.6821 265.476 55.6168C264.682 55.4768 264.062 55.3135 263.614 55.1268C263.166 54.9401 262.848 54.6975 262.662 54.3988C262.475 54.1001 262.382 53.7361 262.382 53.3068C262.382 52.5881 262.657 52.0095 263.208 51.5708C263.768 51.1228 264.603 50.8988 265.714 50.8988C266.423 50.8988 267.016 51.0108 267.492 51.2348C267.977 51.4588 268.35 51.7668 268.612 52.1588C268.882 52.5415 269.05 52.9801 269.116 53.4748L267.002 53.5588C266.974 53.3161 266.899 53.1108 266.778 52.9428C266.666 52.7655 266.521 52.6301 266.344 52.5368C266.166 52.4341 265.952 52.3828 265.7 52.3828C265.326 52.3828 265.037 52.4621 264.832 52.6208C264.636 52.7701 264.538 52.9708 264.538 53.2228C264.538 53.4095 264.58 53.5635 264.664 53.6848C264.757 53.7968 264.906 53.8901 265.112 53.9648C265.317 54.0395 265.592 54.1001 265.938 54.1468C266.74 54.2588 267.375 54.4175 267.842 54.6228C268.318 54.8188 268.658 55.0661 268.864 55.3648C269.069 55.6635 269.172 56.0321 269.172 56.4708C269.172 56.9561 269.032 57.3668 268.752 57.7028C268.472 58.0388 268.08 58.2955 267.576 58.4728C267.081 58.6501 266.493 58.7388 265.812 58.7388ZM270.198 58.5708V56.4288H272.48V58.5708H270.198Z" fill="#1E1E1E"/>
<path fill-rule="evenodd" clip-rule="evenodd" d="M37.1031 10.711C37.9367 10.5606 38.8188 10.5786 39.6912 10.7952C42.7607 11.5624 44.5862 14.5017 43.7623 17.3597C42.9384 20.2177 39.7816 21.9175 36.7121 21.1504C35.8365 20.9308 35.0643 20.5366 34.4245 20.0192C28.6183 14.1617 21.6684 11.9745 13.9817 16.5233C11.9235 17.5703 9.44852 17.9102 7.00584 17.2995C1.96863 16.045 -1.02655 11.2194 0.324027 6.52621C1.67461 1.833 6.86045 -0.955847 11.9009 0.301692C14.3436 0.912411 16.3048 2.35948 17.5229 4.22172C21.7362 11.7369 28.9285 13.0787 37.1031 10.711Z" fill="url(#paint0_linear_108_49)"/>
<path fill-rule="evenodd" clip-rule="evenodd" d="M11.5384 45.3584C11.2707 45.9598 10.8675 46.5144 10.332 46.9631C8.45157 48.546 5.65709 48.2874 4.09367 46.3836C2.53024 44.4797 2.78568 41.6504 4.6661 40.0675C5.20161 39.6157 5.81098 39.3134 6.44496 39.1576C12.9757 38.2914 17.5398 34.9292 17.8845 27.8435C18.0907 26.03 18.9616 24.2913 20.4573 23.0325C23.5442 20.4337 28.1298 20.8606 30.6966 23.9859C33.2633 27.1113 32.8417 31.7541 29.7548 34.3528C28.2591 35.6116 26.4125 36.16 24.6121 36.0354C17.669 35.085 13.5666 39.0143 11.5353 45.3584H11.5384Z" fill="url(#paint1_linear_108_49)"/>
<g clip-path="url(#clip0_108_49)">
<path fill-rule="evenodd" clip-rule="evenodd" d="M46.6197 26.8524C49.5522 27.6139 51.2883 30.536 50.5037 33.3824C49.7191 36.2234 46.7031 37.9139 43.7762 37.1524C40.8436 36.3908 39.1075 33.4634 39.8921 30.6224C40.6767 27.776 43.6871 26.0908 46.6197 26.8524Z" fill="url(#paint2_linear_108_49)"/>
</g>
<defs>
<linearGradient id="paint0_linear_108_49" x1="11.5111" y1="4.69429e-07" x2="40.7182" y2="24.6898" gradientUnits="userSpaceOnUse">
<stop stop-color="#0C20DB"/>
<stop offset="1" stop-color="#0B52ED"/>
</linearGradient>
<linearGradient id="paint1_linear_108_49" x1="29.1617" y1="23.0882" x2="7.65238" y2="48.3049" gradientUnits="userSpaceOnUse">
<stop stop-color="#1558EA"/>
<stop offset="1" stop-color="#008BF7"/>
</linearGradient>
<linearGradient id="paint2_linear_108_49" x1="45.1979" y1="26.6694" x2="45.1979" y2="37.335" gradientUnits="userSpaceOnUse">
<stop stop-color="#0C20DB"/>
<stop offset="1" stop-color="#1558EA"/>
</linearGradient>
<clipPath id="clip0_108_49">
<rect width="10.99" height="10.6673" fill="white" transform="translate(39.7031 26.6689)"/>
</clipPath>
</defs>
</svg>
